<svg width="21" height="17" viewBox="0 0 21 17" fill="none" xmlns="http://www.w3.org/2000/svg">
<path d="M20.5263 1.98086C19.7715 2.30648 18.9501 2.54082 18.1039 2.6321C18.9824 2.11021 19.6402 1.28571 19.954 0.313295C19.1297 0.80367 18.2267 1.14753 17.285 1.32962C16.8914 0.908848 16.4153 0.573641 15.8865 0.344888C15.3577 0.116135 14.7875 -0.00126247 14.2113 1.02382e-05C11.8802 1.02382e-05 10.0054 1.88959 10.0054 4.20839C10.0054 4.534 10.0449 4.85962 10.109 5.17291C6.61848 4.99036 3.50537 3.3228 1.43571 0.769655C1.0586 1.41378 0.86098 2.14718 0.863413 2.89358C0.863413 4.35393 1.60592 5.6416 2.73819 6.39891C2.07093 6.37263 1.41929 6.18923 0.836279 5.86362V5.91542C0.836279 7.9604 2.28183 9.6551 4.20841 10.0449C3.84667 10.1388 3.47455 10.1869 3.10081 10.1879C2.82699 10.1879 2.56798 10.1608 2.3065 10.1238C2.83933 11.7914 4.39095 13.0026 6.23859 13.042C4.79304 14.1743 2.9824 14.8403 1.01636 14.8403C0.663602 14.8403 0.337983 14.828 3.05176e-05 14.7885C1.86494 15.9849 4.07767 16.6756 6.4606 16.6756C14.1965 16.6756 18.4296 10.2669 18.4296 4.70422C18.4296 4.52167 18.4296 4.33913 18.4172 4.15658C19.2362 3.55715 19.954 2.81464 20.5263 1.98086Z" fill="#31352B"/>
</svg>
